<svg version="1.1" id="Layer_1" xmlns="http://www.w3.org/2000/svg" xmlns:xlink="http://www.w3.org/1999/xlink" x="0px" y="0px"
	 width="100%" viewBox="0 0 1024 1024" enable-background="new 0 0 1024 1024" xml:space="preserve">
<path fill="#000000" opacity="1.000000" stroke="none" 
	d="
M430.714813,494.740143 
	C415.573334,504.469574 401.644531,515.354797 386.288635,524.137634 
	C379.556702,527.988037 373.600616,527.435791 366.974396,524.010681 
	C353.399200,516.993713 341.485138,507.616028 329.718414,498.117615 
	C311.835327,483.681854 294.299500,468.784088 278.000488,452.552795 
	C270.109039,444.694214 262.594055,436.373260 258.062592,425.906586 
	C257.673309,425.007446 257.067596,424.164612 256.417236,423.422882 
	C254.430862,421.157257 251.914200,419.779724 248.889816,420.423309 
	C245.678925,421.106506 245.905487,424.247284 245.579575,426.524536 
	C243.717438,439.535767 241.784393,452.548615 240.428055,465.618286 
	C236.201889,506.341553 232.253677,547.093567 228.117310,587.826294 
	C227.479065,594.111450 226.329330,600.343018 225.574387,606.618408 
	C224.580368,614.881042 227.588181,622.360352 230.511383,629.800842 
	C231.910187,633.361267 233.635574,636.796082 235.276718,640.257690 
	C236.411301,642.650879 235.860077,644.079346 233.462997,645.488770 
	C221.692291,652.409424 209.984100,659.441345 198.381073,666.639099 
	C195.172485,668.629456 192.264130,668.851807 188.997696,667.202454 
	C181.411453,663.371765 175.659576,658.178894 173.690628,649.349426 
	C171.563980,639.812683 167.010757,631.103455 161.644516,623.136902 
	C151.102570,607.486755 149.633194,591.363647 154.454239,573.274963 
	C160.915955,549.030579 165.670273,524.331909 171.195801,499.836853 
	C172.911240,492.232117 171.222626,484.742706 169.336899,477.639343 
	C164.793991,460.526581 168.280731,444.931671 175.260666,429.226013 
	C182.558594,412.804901 188.565201,395.814484 195.396866,379.179932 
	C200.047470,367.856079 206.103592,357.384491 215.322571,348.985138 
	C227.597656,337.801453 239.060928,336.895905 252.850586,346.133789 
	C265.008392,354.278442 275.139282,364.631073 284.727386,375.518738 
	C298.178192,390.792725 309.115265,408.016541 321.769440,423.919586 
	C325.938354,429.158875 330.684387,433.817291 335.265991,438.651306 
	C336.735596,440.201904 338.560516,440.700470 340.625427,440.950928 
	C357.691864,443.020905 374.148743,440.970062 390.008789,434.149261 
	C409.799225,425.638153 429.020721,416.073395 446.559998,403.466705 
	C455.905182,396.749664 463.383392,388.714508 466.581421,376.960907 
	C471.312897,359.571503 479.759491,343.528320 486.102753,326.708344 
	C487.334503,323.442169 488.656738,320.154755 489.351990,316.757355 
	C490.037781,313.406219 491.796722,312.284546 494.925964,312.585785 
	C495.256042,312.617584 495.614014,312.662872 495.922333,312.574219 
	C512.684875,307.754456 519.662537,321.266724 527.099731,331.018707 
	C532.387634,337.952423 532.158203,348.351471 534.401489,357.202515 
	C537.191284,368.210022 535.550598,379.009949 534.040039,389.883026 
	C529.118835,425.307892 524.234314,460.737915 519.254395,496.154541 
	C514.413391,530.583008 509.094147,564.949158 504.695770,599.433411 
	C501.248749,626.458801 495.276215,653.252502 496.239105,680.746277 
	C496.298431,682.440063 496.163330,684.055603 494.457855,685.106812 
	C480.110535,693.950989 465.144348,695.409424 454.559631,678.328796 
	C440.547272,655.716980 434.561005,630.989868 442.557159,604.317200 
	C448.194916,585.511414 453.403351,566.577332 458.881866,547.723328 
	C460.240906,543.046326 461.009033,538.317932 461.069702,533.462524 
	C461.248779,519.135803 461.464355,504.809448 461.582123,490.482239 
	C461.641571,483.252258 458.957642,481.133270 451.899567,483.004730 
	C444.007111,485.097473 437.858734,490.472687 430.714813,494.740143 
z"/>
<path fill="#000000" opacity="1.000000" stroke="none" 
	d="
M730.256714,326.119995 
	C730.246887,345.766693 730.171692,364.927795 730.268372,384.088074 
	C730.303894,391.133820 728.596680,397.552277 722.939026,401.912079 
	C706.978943,414.210876 699.397583,431.417114 693.021240,449.780823 
	C683.028076,478.560760 674.734863,507.889801 664.447815,536.563599 
	C660.794067,546.747986 657.026733,556.892029 653.245911,567.030151 
	C651.411865,571.948242 651.844299,573.119263 657.164062,574.298035 
	C669.219910,576.969299 681.516907,577.905701 693.799561,578.564636 
	C711.132507,579.494385 728.419006,577.950500 745.677551,576.572937 
	C752.151489,576.056213 758.456726,574.031433 764.451416,571.604126 
	C785.674927,563.010254 807.324768,562.382263 829.686890,566.107117 
	C850.380554,569.554077 870.890503,573.713806 891.339600,578.313538 
	C894.880310,579.109985 896.175293,580.625671 896.705688,584.163574 
	C898.908203,598.855652 904.204102,612.777100 907.856384,627.114563 
	C908.636108,630.175659 909.373657,633.250732 910.267883,636.278870 
	C914.792480,651.602051 906.450989,662.525208 897.541382,673.146362 
	C892.197693,679.516663 886.438965,685.547424 882.014221,692.635803 
	C880.676025,694.779602 879.086182,694.824463 876.902039,694.126404 
	C853.143677,686.534119 830.648560,676.269836 809.647278,662.757629 
	C799.058167,655.944702 789.212036,647.558167 775.987732,646.063904 
	C770.374634,645.429626 764.754578,644.604736 759.121399,644.446228 
	C740.984375,643.935791 722.828979,644.991577 704.693604,643.421387 
	C679.403625,641.231689 656.935486,650.278137 635.159424,661.650452 
	C619.565735,669.794067 605.565125,680.198486 592.796448,692.263611 
	C590.877869,694.076538 588.932007,695.173706 586.196106,695.153992 
	C575.200256,695.074890 564.203308,695.150635 553.206787,695.152893 
	C551.383057,695.153259 549.429199,695.363892 548.770691,692.948669 
	C546.409180,684.287720 543.589355,675.722839 541.765747,666.950562 
	C538.783264,652.603943 543.507202,639.575195 550.395569,627.336548 
	C555.863586,617.621460 561.742920,608.102844 567.990967,598.870178 
	C576.790405,585.867310 581.668396,571.111450 587.365173,556.769165 
	C602.112366,519.641357 616.698303,482.441467 630.694214,445.025574 
	C644.397278,408.392700 657.433594,371.507263 670.413574,334.609924 
	C672.776855,327.891937 676.269653,322.816895 682.500916,319.548492 
	C683.825806,318.853516 685.211060,318.178009 686.341980,317.224792 
	C692.905396,311.692871 699.222107,309.337494 707.305420,315.348053 
	C711.277649,318.301697 717.189514,317.732880 722.384827,317.812775 
	C730.201294,317.932983 730.246338,318.048248 730.256714,326.119995 
z"/>
</svg>